<mxfile host="app.diagrams.net" modified="2023-04-03T21:10:51.262Z" agent="Mozilla/5.0 (Windows NT 10.0; Win64; x64) AppleWebKit/537.36 (KHTML, like Gecko) Chrome/111.0.0.0 Safari/537.36" etag="MZWVKWt5d0wwcflwY4WD" version="21.1.2" type="device">
  <diagram id="C5RBs43oDa-KdzZeNtuy" name="Page-1">
    <mxGraphModel dx="1687" dy="899" grid="1" gridSize="10" guides="1" tooltips="1" connect="1" arrows="1" fold="1" page="1" pageScale="1" pageWidth="1169" pageHeight="827" math="0" shadow="0">
      <root>
        <mxCell id="WIyWlLk6GJQsqaUBKTNV-0" />
        <mxCell id="WIyWlLk6GJQsqaUBKTNV-1" parent="WIyWlLk6GJQsqaUBKTNV-0" />
        <mxCell id="ZO5b0A8Ax0-lWeFQrmJ0-0" value="WaterTower" style="swimlane;fontStyle=1;align=center;verticalAlign=top;childLayout=stackLayout;horizontal=1;startSize=26;horizontalStack=0;resizeParent=1;resizeParentMax=0;resizeLast=0;collapsible=1;marginBottom=0;whiteSpace=wrap;html=1;labelBackgroundColor=none;fillColor=#FAD9D5;strokeColor=#D0CEE2;fontColor=#1A1A1A;" vertex="1" parent="WIyWlLk6GJQsqaUBKTNV-1">
          <mxGeometry x="780" y="850" width="240" height="200" as="geometry">
            <mxRectangle x="510" y="360" width="100" height="30" as="alternateBounds" />
          </mxGeometry>
        </mxCell>
        <mxCell id="ZO5b0A8Ax0-lWeFQrmJ0-1" value="+&amp;nbsp;event Action&amp;lt;bool&amp;gt; OnStatePumpEvent;&lt;br&gt;-&amp;nbsp;double _maxWaterLevel;&lt;br&gt;&lt;span style=&quot;background-color: initial;&quot;&gt;- double _currentWaterLevel;&lt;br&gt;+ double CurrentWaterLevel;&lt;br&gt;&lt;br&gt;&lt;/span&gt;" style="text;strokeColor=none;fillColor=none;align=left;verticalAlign=top;spacingLeft=4;spacingRight=4;overflow=hidden;rotatable=0;points=[[0,0.5],[1,0.5]];portConstraint=eastwest;whiteSpace=wrap;html=1;labelBackgroundColor=none;fontColor=#1A1A1A;" vertex="1" parent="ZO5b0A8Ax0-lWeFQrmJ0-0">
          <mxGeometry y="26" width="240" height="64" as="geometry" />
        </mxCell>
        <mxCell id="ZO5b0A8Ax0-lWeFQrmJ0-2" value="" style="line;strokeWidth=1;fillColor=none;align=left;verticalAlign=middle;spacingTop=-1;spacingLeft=3;spacingRight=3;rotatable=0;labelPosition=right;points=[];portConstraint=eastwest;strokeColor=#D0CEE2;labelBackgroundColor=none;fontColor=#1A1A1A;" vertex="1" parent="ZO5b0A8Ax0-lWeFQrmJ0-0">
          <mxGeometry y="90" width="240" height="8" as="geometry" />
        </mxCell>
        <mxCell id="ZO5b0A8Ax0-lWeFQrmJ0-3" value="+ constructor&amp;nbsp;WaterTower()&lt;br&gt;+&amp;nbsp;bool IsFull()&lt;br&gt;+&amp;nbsp;void RandomWaterFill()&lt;br&gt;+&amp;nbsp;void AddWater()&lt;br&gt;+&amp;nbsp;void RemoveWater()&lt;br&gt;+&amp;nbsp;override string ToString()" style="text;strokeColor=none;fillColor=none;align=left;verticalAlign=top;spacingLeft=4;spacingRight=4;overflow=hidden;rotatable=0;points=[[0,0.5],[1,0.5]];portConstraint=eastwest;whiteSpace=wrap;html=1;labelBackgroundColor=none;fontColor=#1A1A1A;" vertex="1" parent="ZO5b0A8Ax0-lWeFQrmJ0-0">
          <mxGeometry y="98" width="240" height="102" as="geometry" />
        </mxCell>
        <mxCell id="ZO5b0A8Ax0-lWeFQrmJ0-5" value="WaterPump" style="swimlane;fontStyle=1;align=center;verticalAlign=top;childLayout=stackLayout;horizontal=1;startSize=26;horizontalStack=0;resizeParent=1;resizeParentMax=0;resizeLast=0;collapsible=1;marginBottom=0;whiteSpace=wrap;html=1;labelBackgroundColor=none;fillColor=#FAD9D5;strokeColor=#D0CEE2;fontColor=#1A1A1A;" vertex="1" parent="WIyWlLk6GJQsqaUBKTNV-1">
          <mxGeometry x="540" y="850" width="170" height="130" as="geometry" />
        </mxCell>
        <mxCell id="ZO5b0A8Ax0-lWeFQrmJ0-6" value="-&amp;nbsp;double _speedWater;" style="text;strokeColor=none;fillColor=none;align=left;verticalAlign=top;spacingLeft=4;spacingRight=4;overflow=hidden;rotatable=0;points=[[0,0.5],[1,0.5]];portConstraint=eastwest;whiteSpace=wrap;html=1;labelBackgroundColor=none;fontColor=#1A1A1A;" vertex="1" parent="ZO5b0A8Ax0-lWeFQrmJ0-5">
          <mxGeometry y="26" width="170" height="26" as="geometry" />
        </mxCell>
        <mxCell id="ZO5b0A8Ax0-lWeFQrmJ0-7" value="" style="line;strokeWidth=1;fillColor=none;align=left;verticalAlign=middle;spacingTop=-1;spacingLeft=3;spacingRight=3;rotatable=0;labelPosition=right;points=[];portConstraint=eastwest;strokeColor=#D0CEE2;labelBackgroundColor=none;fontColor=#1A1A1A;" vertex="1" parent="ZO5b0A8Ax0-lWeFQrmJ0-5">
          <mxGeometry y="52" width="170" height="8" as="geometry" />
        </mxCell>
        <mxCell id="ZO5b0A8Ax0-lWeFQrmJ0-8" value="+ constructor&amp;nbsp;WaterPump()&lt;br&gt;+&amp;nbsp;double GetPumpingTime()&lt;br&gt;+&amp;nbsp;void PumpState()&lt;br&gt;+&amp;nbsp;override string ToString()" style="text;strokeColor=none;fillColor=none;align=left;verticalAlign=top;spacingLeft=4;spacingRight=4;overflow=hidden;rotatable=0;points=[[0,0.5],[1,0.5]];portConstraint=eastwest;whiteSpace=wrap;html=1;labelBackgroundColor=none;fontColor=#1A1A1A;" vertex="1" parent="ZO5b0A8Ax0-lWeFQrmJ0-5">
          <mxGeometry y="60" width="170" height="70" as="geometry" />
        </mxCell>
        <mxCell id="ZO5b0A8Ax0-lWeFQrmJ0-9" value="User" style="swimlane;fontStyle=1;align=center;verticalAlign=top;childLayout=stackLayout;horizontal=1;startSize=26;horizontalStack=0;resizeParent=1;resizeParentMax=0;resizeLast=0;collapsible=1;marginBottom=0;whiteSpace=wrap;html=1;labelBackgroundColor=none;fillColor=#FAD9D5;strokeColor=#D0CEE2;fontColor=#1A1A1A;" vertex="1" parent="WIyWlLk6GJQsqaUBKTNV-1">
          <mxGeometry x="750" y="290" width="220" height="100" as="geometry" />
        </mxCell>
        <mxCell id="ZO5b0A8Ax0-lWeFQrmJ0-10" value="-&amp;nbsp;double _waterConsumptionRate;" style="text;strokeColor=none;fillColor=none;align=left;verticalAlign=top;spacingLeft=4;spacingRight=4;overflow=hidden;rotatable=0;points=[[0,0.5],[1,0.5]];portConstraint=eastwest;whiteSpace=wrap;html=1;labelBackgroundColor=none;fontColor=#1A1A1A;" vertex="1" parent="ZO5b0A8Ax0-lWeFQrmJ0-9">
          <mxGeometry y="26" width="220" height="26" as="geometry" />
        </mxCell>
        <mxCell id="ZO5b0A8Ax0-lWeFQrmJ0-11" value="" style="line;strokeWidth=1;fillColor=none;align=left;verticalAlign=middle;spacingTop=-1;spacingLeft=3;spacingRight=3;rotatable=0;labelPosition=right;points=[];portConstraint=eastwest;strokeColor=#D0CEE2;labelBackgroundColor=none;fontColor=#1A1A1A;" vertex="1" parent="ZO5b0A8Ax0-lWeFQrmJ0-9">
          <mxGeometry y="52" width="220" height="8" as="geometry" />
        </mxCell>
        <mxCell id="ZO5b0A8Ax0-lWeFQrmJ0-12" value="+ constructor&amp;nbsp;User()&lt;br&gt;+&amp;nbsp;double GetWaterConsumptionRate()" style="text;strokeColor=none;fillColor=none;align=left;verticalAlign=top;spacingLeft=4;spacingRight=4;overflow=hidden;rotatable=0;points=[[0,0.5],[1,0.5]];portConstraint=eastwest;whiteSpace=wrap;html=1;labelBackgroundColor=none;fontColor=#1A1A1A;" vertex="1" parent="ZO5b0A8Ax0-lWeFQrmJ0-9">
          <mxGeometry y="60" width="220" height="40" as="geometry" />
        </mxCell>
        <mxCell id="ZO5b0A8Ax0-lWeFQrmJ0-13" value="abstract class WaterSimulation" style="swimlane;fontStyle=1;align=center;verticalAlign=top;childLayout=stackLayout;horizontal=1;startSize=26;horizontalStack=0;resizeParent=1;resizeParentMax=0;resizeLast=0;collapsible=1;marginBottom=0;whiteSpace=wrap;html=1;labelBackgroundColor=none;fillColor=#FAD9D5;strokeColor=#D0CEE2;fontColor=#1A1A1A;" vertex="1" parent="WIyWlLk6GJQsqaUBKTNV-1">
          <mxGeometry x="610" y="581" width="220" height="130" as="geometry" />
        </mxCell>
        <mxCell id="ZO5b0A8Ax0-lWeFQrmJ0-14" value="# WaterTower _waterTower;;&lt;br&gt;# WaterPump _waterPump;" style="text;strokeColor=none;fillColor=none;align=left;verticalAlign=top;spacingLeft=4;spacingRight=4;overflow=hidden;rotatable=0;points=[[0,0.5],[1,0.5]];portConstraint=eastwest;whiteSpace=wrap;html=1;labelBackgroundColor=none;fontColor=#1A1A1A;" vertex="1" parent="ZO5b0A8Ax0-lWeFQrmJ0-13">
          <mxGeometry y="26" width="220" height="44" as="geometry" />
        </mxCell>
        <mxCell id="ZO5b0A8Ax0-lWeFQrmJ0-15" value="" style="line;strokeWidth=1;fillColor=none;align=left;verticalAlign=middle;spacingTop=-1;spacingLeft=3;spacingRight=3;rotatable=0;labelPosition=right;points=[];portConstraint=eastwest;strokeColor=#D0CEE2;labelBackgroundColor=none;fontColor=#1A1A1A;" vertex="1" parent="ZO5b0A8Ax0-lWeFQrmJ0-13">
          <mxGeometry y="70" width="220" height="8" as="geometry" />
        </mxCell>
        <mxCell id="ZO5b0A8Ax0-lWeFQrmJ0-16" value="+ constructor&amp;nbsp;WaterSimulation()&lt;br&gt;+&amp;nbsp;abstract void Simulate()" style="text;strokeColor=none;fillColor=none;align=left;verticalAlign=top;spacingLeft=4;spacingRight=4;overflow=hidden;rotatable=0;points=[[0,0.5],[1,0.5]];portConstraint=eastwest;whiteSpace=wrap;html=1;labelBackgroundColor=none;fontColor=#1A1A1A;" vertex="1" parent="ZO5b0A8Ax0-lWeFQrmJ0-13">
          <mxGeometry y="78" width="220" height="52" as="geometry" />
        </mxCell>
        <mxCell id="ZO5b0A8Ax0-lWeFQrmJ0-17" value="SimulationOfWaterPumping" style="swimlane;fontStyle=1;align=center;verticalAlign=top;childLayout=stackLayout;horizontal=1;startSize=26;horizontalStack=0;resizeParent=1;resizeParentMax=0;resizeLast=0;collapsible=1;marginBottom=0;whiteSpace=wrap;html=1;labelBackgroundColor=none;fillColor=#FAD9D5;strokeColor=#D0CEE2;fontColor=#1A1A1A;" vertex="1" parent="WIyWlLk6GJQsqaUBKTNV-1">
          <mxGeometry x="510" y="440" width="230" height="80" as="geometry" />
        </mxCell>
        <mxCell id="ZO5b0A8Ax0-lWeFQrmJ0-19" value="" style="line;strokeWidth=1;fillColor=none;align=left;verticalAlign=middle;spacingTop=-1;spacingLeft=3;spacingRight=3;rotatable=0;labelPosition=right;points=[];portConstraint=eastwest;strokeColor=#D0CEE2;labelBackgroundColor=none;fontColor=#1A1A1A;" vertex="1" parent="ZO5b0A8Ax0-lWeFQrmJ0-17">
          <mxGeometry y="26" width="230" height="8" as="geometry" />
        </mxCell>
        <mxCell id="ZO5b0A8Ax0-lWeFQrmJ0-20" value="+&amp;nbsp;SimulationOfWaterPumping()&lt;br&gt;+&amp;nbsp;override void Simulate()" style="text;strokeColor=none;fillColor=none;align=left;verticalAlign=top;spacingLeft=4;spacingRight=4;overflow=hidden;rotatable=0;points=[[0,0.5],[1,0.5]];portConstraint=eastwest;whiteSpace=wrap;html=1;labelBackgroundColor=none;fontColor=#1A1A1A;" vertex="1" parent="ZO5b0A8Ax0-lWeFQrmJ0-17">
          <mxGeometry y="34" width="230" height="46" as="geometry" />
        </mxCell>
        <mxCell id="ZO5b0A8Ax0-lWeFQrmJ0-21" value="&lt;p style=&quot;margin:0px;margin-top:4px;text-align:center;&quot;&gt;&lt;i&gt;&amp;lt;&amp;lt;Interface&amp;gt;&amp;gt;&lt;/i&gt;&lt;br&gt;&lt;b&gt;IView&lt;/b&gt;&lt;br&gt;&lt;/p&gt;&lt;hr size=&quot;1&quot;&gt;&lt;p style=&quot;margin:0px;margin-left:4px;&quot;&gt;+&amp;nbsp;string CheckCommandIsNull;&lt;br&gt;&lt;/p&gt;&lt;hr size=&quot;1&quot;&gt;&lt;p style=&quot;margin:0px;margin-left:4px;&quot;&gt;+&amp;nbsp;abstract void SendCommand()&lt;/p&gt;" style="verticalAlign=top;align=left;overflow=fill;fontSize=12;fontFamily=Helvetica;html=1;whiteSpace=wrap;labelBackgroundColor=none;fillColor=#FAD9D5;strokeColor=#D0CEE2;fontColor=#1A1A1A;" vertex="1" parent="WIyWlLk6GJQsqaUBKTNV-1">
          <mxGeometry x="380" y="534" width="190" height="90" as="geometry" />
        </mxCell>
        <mxCell id="ZO5b0A8Ax0-lWeFQrmJ0-22" value="abstract class View" style="swimlane;fontStyle=1;align=center;verticalAlign=top;childLayout=stackLayout;horizontal=1;startSize=26;horizontalStack=0;resizeParent=1;resizeParentMax=0;resizeLast=0;collapsible=1;marginBottom=0;whiteSpace=wrap;html=1;labelBackgroundColor=none;fillColor=#FAD9D5;strokeColor=#D0CEE2;fontColor=#1A1A1A;" vertex="1" parent="WIyWlLk6GJQsqaUBKTNV-1">
          <mxGeometry x="100" y="510" width="210" height="114" as="geometry" />
        </mxCell>
        <mxCell id="ZO5b0A8Ax0-lWeFQrmJ0-23" value="#&amp;nbsp;string inputCommand;&lt;br&gt;#&amp;nbsp;bool isEmpty;&lt;br&gt;+&amp;nbsp;string CheckCommandIsNull;" style="text;strokeColor=none;fillColor=none;align=left;verticalAlign=top;spacingLeft=4;spacingRight=4;overflow=hidden;rotatable=0;points=[[0,0.5],[1,0.5]];portConstraint=eastwest;whiteSpace=wrap;html=1;labelBackgroundColor=none;fontColor=#1A1A1A;" vertex="1" parent="ZO5b0A8Ax0-lWeFQrmJ0-22">
          <mxGeometry y="26" width="210" height="54" as="geometry" />
        </mxCell>
        <mxCell id="ZO5b0A8Ax0-lWeFQrmJ0-24" value="" style="line;strokeWidth=1;fillColor=none;align=left;verticalAlign=middle;spacingTop=-1;spacingLeft=3;spacingRight=3;rotatable=0;labelPosition=right;points=[];portConstraint=eastwest;strokeColor=#D0CEE2;labelBackgroundColor=none;fontColor=#1A1A1A;" vertex="1" parent="ZO5b0A8Ax0-lWeFQrmJ0-22">
          <mxGeometry y="80" width="210" height="8" as="geometry" />
        </mxCell>
        <mxCell id="ZO5b0A8Ax0-lWeFQrmJ0-25" value="+&amp;nbsp;abstract void SendCommand()" style="text;strokeColor=none;fillColor=none;align=left;verticalAlign=top;spacingLeft=4;spacingRight=4;overflow=hidden;rotatable=0;points=[[0,0.5],[1,0.5]];portConstraint=eastwest;whiteSpace=wrap;html=1;labelBackgroundColor=none;fontColor=#1A1A1A;" vertex="1" parent="ZO5b0A8Ax0-lWeFQrmJ0-22">
          <mxGeometry y="88" width="210" height="26" as="geometry" />
        </mxCell>
        <mxCell id="ZO5b0A8Ax0-lWeFQrmJ0-26" value="MainView" style="swimlane;fontStyle=1;align=center;verticalAlign=top;childLayout=stackLayout;horizontal=1;startSize=26;horizontalStack=0;resizeParent=1;resizeParentMax=0;resizeLast=0;collapsible=1;marginBottom=0;whiteSpace=wrap;html=1;labelBackgroundColor=none;fillColor=#FAD9D5;strokeColor=#D0CEE2;fontColor=#1A1A1A;" vertex="1" parent="WIyWlLk6GJQsqaUBKTNV-1">
          <mxGeometry x="190" y="290" width="270" height="118" as="geometry" />
        </mxCell>
        <mxCell id="ZO5b0A8Ax0-lWeFQrmJ0-27" value="-&amp;nbsp;WaterSimulation _waterSimulation;&lt;br&gt;-&amp;nbsp;User _user;" style="text;strokeColor=none;fillColor=none;align=left;verticalAlign=top;spacingLeft=4;spacingRight=4;overflow=hidden;rotatable=0;points=[[0,0.5],[1,0.5]];portConstraint=eastwest;whiteSpace=wrap;html=1;labelBackgroundColor=none;fontColor=#1A1A1A;" vertex="1" parent="ZO5b0A8Ax0-lWeFQrmJ0-26">
          <mxGeometry y="26" width="270" height="44" as="geometry" />
        </mxCell>
        <mxCell id="ZO5b0A8Ax0-lWeFQrmJ0-28" value="" style="line;strokeWidth=1;fillColor=none;align=left;verticalAlign=middle;spacingTop=-1;spacingLeft=3;spacingRight=3;rotatable=0;labelPosition=right;points=[];portConstraint=eastwest;strokeColor=#D0CEE2;labelBackgroundColor=none;fontColor=#1A1A1A;" vertex="1" parent="ZO5b0A8Ax0-lWeFQrmJ0-26">
          <mxGeometry y="70" width="270" height="8" as="geometry" />
        </mxCell>
        <mxCell id="ZO5b0A8Ax0-lWeFQrmJ0-29" value="+ constructor&amp;nbsp;MainView()&lt;br&gt;+&amp;nbsp;override void SendCommand()" style="text;strokeColor=none;fillColor=none;align=left;verticalAlign=top;spacingLeft=4;spacingRight=4;overflow=hidden;rotatable=0;points=[[0,0.5],[1,0.5]];portConstraint=eastwest;whiteSpace=wrap;html=1;labelBackgroundColor=none;fontColor=#1A1A1A;" vertex="1" parent="ZO5b0A8Ax0-lWeFQrmJ0-26">
          <mxGeometry y="78" width="270" height="40" as="geometry" />
        </mxCell>
        <mxCell id="ZO5b0A8Ax0-lWeFQrmJ0-35" value="" style="endArrow=block;dashed=1;endFill=0;endSize=12;html=1;rounded=0;entryX=0.5;entryY=0;entryDx=0;entryDy=0;exitX=0.5;exitY=0;exitDx=0;exitDy=0;labelBackgroundColor=none;strokeColor=#09555B;fontColor=default;" edge="1" parent="WIyWlLk6GJQsqaUBKTNV-1" source="ZO5b0A8Ax0-lWeFQrmJ0-22" target="ZO5b0A8Ax0-lWeFQrmJ0-21">
          <mxGeometry width="160" relative="1" as="geometry">
            <mxPoint x="240" y="420" as="sourcePoint" />
            <mxPoint x="200" y="400" as="targetPoint" />
            <Array as="points">
              <mxPoint x="205" y="450" />
              <mxPoint x="350" y="450" />
              <mxPoint x="475" y="450" />
            </Array>
          </mxGeometry>
        </mxCell>
        <mxCell id="ZO5b0A8Ax0-lWeFQrmJ0-36" value="Use" style="endArrow=open;endSize=12;dashed=1;html=1;rounded=0;entryX=0.25;entryY=0;entryDx=0;entryDy=0;exitX=0.368;exitY=-0.037;exitDx=0;exitDy=0;exitPerimeter=0;labelBackgroundColor=none;strokeColor=#09555B;fontColor=default;" edge="1" parent="WIyWlLk6GJQsqaUBKTNV-1" source="ZO5b0A8Ax0-lWeFQrmJ0-26" target="ZO5b0A8Ax0-lWeFQrmJ0-22">
          <mxGeometry width="160" relative="1" as="geometry">
            <mxPoint x="220" y="190" as="sourcePoint" />
            <mxPoint x="325" y="290" as="targetPoint" />
            <Array as="points">
              <mxPoint x="289" y="250" />
              <mxPoint x="153" y="250" />
            </Array>
          </mxGeometry>
        </mxCell>
        <mxCell id="ZO5b0A8Ax0-lWeFQrmJ0-37" value="" style="endArrow=open;endFill=1;endSize=12;html=1;rounded=0;entryX=0.75;entryY=0;entryDx=0;entryDy=0;labelBackgroundColor=none;strokeColor=#09555B;fontColor=default;" edge="1" parent="WIyWlLk6GJQsqaUBKTNV-1" source="ZO5b0A8Ax0-lWeFQrmJ0-46" target="ZO5b0A8Ax0-lWeFQrmJ0-26">
          <mxGeometry width="160" relative="1" as="geometry">
            <mxPoint x="335" y="70" as="sourcePoint" />
            <mxPoint x="720" y="420" as="targetPoint" />
          </mxGeometry>
        </mxCell>
        <mxCell id="ZO5b0A8Ax0-lWeFQrmJ0-39" value="" style="endArrow=open;endFill=1;endSize=12;html=1;rounded=0;entryX=0.5;entryY=0;entryDx=0;entryDy=0;labelBackgroundColor=none;strokeColor=#09555B;fontColor=default;" edge="1" parent="WIyWlLk6GJQsqaUBKTNV-1" target="ZO5b0A8Ax0-lWeFQrmJ0-17">
          <mxGeometry width="160" relative="1" as="geometry">
            <mxPoint x="433" y="290" as="sourcePoint" />
            <mxPoint x="780" y="550" as="targetPoint" />
            <Array as="points">
              <mxPoint x="433" y="250" />
              <mxPoint x="520" y="250" />
              <mxPoint x="625" y="250" />
            </Array>
          </mxGeometry>
        </mxCell>
        <mxCell id="ZO5b0A8Ax0-lWeFQrmJ0-40" value="Use" style="endArrow=open;endSize=12;dashed=1;html=1;rounded=0;exitX=0.576;exitY=1.047;exitDx=0;exitDy=0;exitPerimeter=0;entryX=0.447;entryY=-0.001;entryDx=0;entryDy=0;entryPerimeter=0;labelBackgroundColor=none;strokeColor=#09555B;fontColor=default;" edge="1" parent="WIyWlLk6GJQsqaUBKTNV-1" source="ZO5b0A8Ax0-lWeFQrmJ0-20" target="ZO5b0A8Ax0-lWeFQrmJ0-13">
          <mxGeometry width="160" relative="1" as="geometry">
            <mxPoint x="620" y="681" as="sourcePoint" />
            <mxPoint x="780" y="681" as="targetPoint" />
            <Array as="points">
              <mxPoint x="642" y="541" />
              <mxPoint x="710" y="541" />
            </Array>
          </mxGeometry>
        </mxCell>
        <mxCell id="ZO5b0A8Ax0-lWeFQrmJ0-41" value="" style="endArrow=diamondThin;endFill=1;endSize=24;html=1;rounded=0;entryX=0.5;entryY=0;entryDx=0;entryDy=0;exitX=0.586;exitY=1.068;exitDx=0;exitDy=0;exitPerimeter=0;labelBackgroundColor=none;strokeColor=#09555B;fontColor=default;" edge="1" parent="WIyWlLk6GJQsqaUBKTNV-1" source="ZO5b0A8Ax0-lWeFQrmJ0-16" target="ZO5b0A8Ax0-lWeFQrmJ0-0">
          <mxGeometry width="160" relative="1" as="geometry">
            <mxPoint x="780" y="580" as="sourcePoint" />
            <mxPoint x="716" y="710" as="targetPoint" />
            <Array as="points">
              <mxPoint x="740" y="740" />
              <mxPoint x="740" y="770" />
              <mxPoint x="900" y="770" />
            </Array>
          </mxGeometry>
        </mxCell>
        <mxCell id="ZO5b0A8Ax0-lWeFQrmJ0-42" value="" style="endArrow=diamondThin;endFill=1;endSize=24;html=1;rounded=0;entryX=0.5;entryY=0;entryDx=0;entryDy=0;labelBackgroundColor=none;strokeColor=#09555B;fontColor=default;" edge="1" parent="WIyWlLk6GJQsqaUBKTNV-1" target="ZO5b0A8Ax0-lWeFQrmJ0-5">
          <mxGeometry width="160" relative="1" as="geometry">
            <mxPoint x="740" y="770" as="sourcePoint" />
            <mxPoint x="780" y="550" as="targetPoint" />
            <Array as="points">
              <mxPoint x="625" y="770" />
            </Array>
          </mxGeometry>
        </mxCell>
        <mxCell id="ZO5b0A8Ax0-lWeFQrmJ0-43" value="Program" style="swimlane;fontStyle=1;align=center;verticalAlign=top;childLayout=stackLayout;horizontal=1;startSize=26;horizontalStack=0;resizeParent=1;resizeParentMax=0;resizeLast=0;collapsible=1;marginBottom=0;whiteSpace=wrap;html=1;labelBackgroundColor=none;fillColor=#FAD9D5;strokeColor=#D0CEE2;fontColor=#1A1A1A;" vertex="1" parent="WIyWlLk6GJQsqaUBKTNV-1">
          <mxGeometry x="280" y="50" width="220" height="60" as="geometry" />
        </mxCell>
        <mxCell id="ZO5b0A8Ax0-lWeFQrmJ0-45" value="" style="line;strokeWidth=1;fillColor=none;align=left;verticalAlign=middle;spacingTop=-1;spacingLeft=3;spacingRight=3;rotatable=0;labelPosition=right;points=[];portConstraint=eastwest;strokeColor=#D0CEE2;labelBackgroundColor=none;fontColor=#1A1A1A;" vertex="1" parent="ZO5b0A8Ax0-lWeFQrmJ0-43">
          <mxGeometry y="26" width="220" height="8" as="geometry" />
        </mxCell>
        <mxCell id="ZO5b0A8Ax0-lWeFQrmJ0-46" value="&lt;u&gt;-&amp;nbsp;void Main()&lt;/u&gt;" style="text;strokeColor=none;fillColor=none;align=left;verticalAlign=top;spacingLeft=4;spacingRight=4;overflow=hidden;rotatable=0;points=[[0,0.5],[1,0.5]];portConstraint=eastwest;whiteSpace=wrap;html=1;labelBackgroundColor=none;fontColor=#1A1A1A;" vertex="1" parent="ZO5b0A8Ax0-lWeFQrmJ0-43">
          <mxGeometry y="34" width="220" height="26" as="geometry" />
        </mxCell>
        <mxCell id="ZO5b0A8Ax0-lWeFQrmJ0-47" value="" style="endArrow=open;endFill=1;endSize=12;html=1;rounded=0;entryX=0.5;entryY=0;entryDx=0;entryDy=0;labelBackgroundColor=none;strokeColor=#09555B;fontColor=default;" edge="1" parent="WIyWlLk6GJQsqaUBKTNV-1" target="ZO5b0A8Ax0-lWeFQrmJ0-9">
          <mxGeometry width="160" relative="1" as="geometry">
            <mxPoint x="620" y="250" as="sourcePoint" />
            <mxPoint x="660" y="390" as="targetPoint" />
            <Array as="points">
              <mxPoint x="860" y="250" />
            </Array>
          </mxGeometry>
        </mxCell>
      </root>
    </mxGraphModel>
  </diagram>
</mxfile>
